<svg xmlns="http://www.w3.org/2000/svg" xmlns:xlink="http://www.w3.org/1999/xlink" width="32" height="32" version="1.1" viewBox="0 0 32 32"><title>47A13852-43B6-4167-A85A-6EF30C9255F8</title><desc>Created with sketchtool.</desc><g id="Page-1" fill="none" fill-rule="evenodd" stroke="none" stroke-width="1"><g id="Reactive-Maps-Redesign-Page" transform="translate(-50.000000, -37.000000)"><g id="Navbar"><g id="Reactive-Icon" transform="translate(50.000000, 37.000000)"><rect id="Rectangle-25" width="32" height="32" x="0" y="0" fill="#FF2A6F" rx="2"/><g id="log" fill="#FFF" transform="translate(6.080000, 6.080000)"><path id="Page-1" d="M5.74493501,-0.000123311803 L5.74493501,1.23299472 L6.45867861,1.23299472 L6.45867861,7.53854375 L0,20.16 L20.16,20.16 L13.8405219,7.54409278 L13.8405219,1.23299472 L14.595579,1.23299472 L14.595579,-0.000123311803 L5.74493501,-0.000123311803 Z M7.69932454,7.83412214 L7.69932454,1.23299472 L12.5998759,1.23299472 L12.5998759,2.71285966 L11.5759709,2.71285966 L11.5759709,3.45260716 L12.5998759,3.45260716 L12.5998759,4.93247211 L11.5759709,4.93247211 L11.5759709,5.67221961 L12.5998759,5.67221961 L12.5998759,7.15208456 L11.5759709,7.15208456 L11.5759709,7.89183206 L12.628783,7.89183206 L13.3700689,9.37169701 L11.5729933,9.37169701 L11.5729933,10.1114445 L13.7406499,10.1114445 L18.1562328,18.926882 L2.02287318,18.926882 L7.69932454,7.83412214 Z"/></g><polygon id="Path-5" fill="#FFF" points="11.372 18.737 20.921 17.091 24.906 25.308 7.539 25.308"/></g></g></g></g></svg>