<svg xmlns="http://www.w3.org/2000/svg" xmlns:xlink="http://www.w3.org/1999/xlink" width="127" height="125" version="1.1" viewBox="0 0 127 125"><title>Tutorials@3x</title><desc>Created with Sketch.</desc><defs><polygon id="path-1" points="0 0 126.789 0 126.789 125 0 125"/><polygon id="path-3" points="0 125 126.789 125 126.789 0 0 0"/></defs><g id="Page-1" fill="none" fill-rule="evenodd" stroke="none" stroke-width="1"><g id="Vue.Search" transform="translate(-485.000000, -5109.000000)"><g id="Tutorials"><g transform="translate(399.000000, 5051.000000) translate(86.000000, 58.000000)"><rect id="Rectangle-8-Copy-11" width="60" height="106" x="2" y="3" fill="#BEFFD2"/><polygon id="Fill-1" fill="#102027" points="12 26 53 26 53 22 12 22"/><polygon id="Fill-2" fill="#102027" points="12 39 53 39 53 35 12 35"/><polygon id="Fill-3" fill="#102027" points="12 52 53 52 53 48 12 48"/><polygon id="Fill-4" fill="#102027" points="12 64 53 64 53 60 12 60"/><polygon id="Fill-5" fill="#102027" points="12 75 53 75 53 71 12 71"/><polygon id="Fill-6" fill="#102027" points="12 87 53 87 53 83 12 83"/><g id="Group-17"><g id="Group-9"><mask id="mask-2" fill="#fff"><use xlink:href="#path-1"/></mask><path id="Fill-7" fill="#102027" stroke="#102027" stroke-width="3" d="M122.70221,107.906354 L71.2768593,107.906354 C69.1661037,107.864427 67.1072433,108.563125 65.4596335,109.881615 L65.4596335,10.2678125 C65.2105883,7.06911458 67.6053337,4.27458333 70.8084979,4.02588542 C70.9644446,4.01364583 71.120652,4.00791667 71.2768593,4.0084375 L122.70221,4.00840497 L122.70221,107.906354 Z M55.5119086,107.906354 L4.08655749,107.906354 L4.08655749,4.08106552 L55.4827012,4.08109375 C58.6957752,4.07119792 61.3080113,6.66442708 61.3176602,9.87276042 C61.3181817,10.02875 61.3121838,10.185 61.3001879,10.3404688 L61.3001879,109.867031 C59.6583152,108.560521 57.6109292,107.867031 55.5119086,107.906354 Z M71.2768593,0.000104166667 C68.2228614,0.04671875 65.3425431,1.42666667 63.3942536,3.77614583 C61.4462248,1.42666667 58.5661674,0.04671875 55.5119086,0.000104166667 L-0.000130390144,0.000104166667 L-0.000130390144,111.929271 L55.5119086,111.929271 C56.9524589,111.852708 58.3494589,112.435521 59.3078265,113.512083 C59.6377136,113.893594 59.9209209,114.313125 60.1511899,114.761302 C60.7715862,116.055833 61.169537,117.445156 61.3293953,118.871198 L61.3293953,125.000104 L65.4158224,125.000104 L65.4158224,118.929271 C65.590806,117.505573 66.0038819,116.121198 66.637578,114.833958 C66.8681078,114.385521 67.1510544,113.96625 67.4812023,113.585 C68.4252269,112.481094 69.8243131,111.870938 71.2768593,111.929271 L126.788898,111.929271 L126.788898,0.000104166667 L71.2768593,0.000104166667 Z" mask="url(#mask-2)"/></g><mask id="mask-4" fill="#fff"><use xlink:href="#path-3"/></mask><polygon id="Fill-10" fill="#102027" points="73.633 27.042 114.543 27.042 114.543 22.961 73.633 22.961" mask="url(#mask-4)"/><polygon id="Fill-12" fill="#102027" points="73.633 39.256 114.543 39.256 114.543 35.175 73.633 35.175" mask="url(#mask-4)"/><polygon id="Fill-13" fill="#102027" points="73.633 51.47 114.543 51.47 114.543 47.389 73.633 47.389" mask="url(#mask-4)"/><polygon id="Fill-14" fill="#102027" points="73.633 63.669 114.543 63.669 114.543 59.588 73.633 59.588" mask="url(#mask-4)"/><polygon id="Fill-15" fill="#102027" points="73.633 75.317 114.543 75.317 114.543 71.236 73.633 71.236" mask="url(#mask-4)"/><polygon id="Fill-16" fill="#102027" points="73.633 87.487 114.543 87.487 114.543 83.406 73.633 83.406" mask="url(#mask-4)"/></g></g></g></g></g></svg>