<svg xmlns="http://www.w3.org/2000/svg" xmlns:xlink="http://www.w3.org/1999/xlink" width="159" height="113" version="1.1" viewBox="0 0 159 113"><title>60F68E32-5455-4BCA-AA6A-A1231A5A41AC</title><desc>Created with sketchtool.</desc><g id="Page-1" fill="none" fill-rule="evenodd" stroke="none" stroke-width="1"><g id="Reactive-Maps-//-Tools" transform="translate(-938.000000, -479.000000)"><g id="ReactiveMaps" transform="translate(942.000000, 482.000000)"><path id="Oval-8" stroke="#FFF" stroke-width="5" d="M75.1160131,78.2584556 C95.1933551,56.5523651 105.232026,40.2795588 105.232026,29.4400366 C105.232026,13.1807534 91.7486278,0 75.1160131,0 C58.4833983,0 45,13.1807534 45,29.4400366 C45,40.2795588 55.038671,56.5523651 75.1160131,78.2584556 Z"/><circle id="Oval-9" cx="75" cy="27" r="7" fill="#FFF"/><polygon id="Path-7" stroke="#FFF" stroke-width="5" points="61.85 63 46.99 68.4 21.316 63 0 97.863 33.441 106.533 75.031 97.863 116.906 106.533 150.869 97.863 131.211 63 105.063 68.4 87.808 63 75.031 78.32"/><path id="Path-8" stroke="#FFF" d="M46.4589844,69 L34,106.373047"/><path id="Path-9" stroke="#FFF" d="M105,68 L116.746094,106.748047"/></g></g></g></svg>